<?xml version="1.0" encoding="utf-8" standalone="no"?>
<!DOCTYPE svg PUBLIC "-//W3C//DTD SVG 1.1//EN"
  "http://www.w3.org/Graphics/SVG/1.1/DTD/svg11.dtd">
<svg xmlns:xlink="http://www.w3.org/1999/xlink" width="411.285625pt" height="258.776656pt" viewBox="0 0 411.285625 258.776656" xmlns="http://www.w3.org/2000/svg" version="1.1">
 <metadata>
  <rdf:RDF xmlns:dc="http://purl.org/dc/elements/1.1/" xmlns:cc="http://creativecommons.org/ns#" xmlns:rdf="http://www.w3.org/1999/02/22-rdf-syntax-ns#">
   <cc:Work>
    <dc:type rdf:resource="http://purl.org/dc/dcmitype/StillImage"/>
    <dc:format>image/svg+xml</dc:format>
    <dc:creator>
     <cc:Agent>
      <dc:title>Matplotlib v3.10.8, https://matplotlib.org/</dc:title>
     </cc:Agent>
    </dc:creator>
   </cc:Work>
  </rdf:RDF>
 </metadata>
 <defs>
  <style type="text/css">*{stroke-linejoin: round; stroke-linecap: butt}</style>
 </defs>
 <g id="figure_1">
  <g id="patch_1">
   <path d="M 0 258.776656 
L 411.285625 258.776656 
L 411.285625 0 
L 0 0 
z
" style="fill: #ffffff"/>
  </g>
  <g id="axes_1">
   <g id="patch_2">
    <path d="M 46.965625 221.142281 
L 404.085625 221.142281 
L 404.085625 21.558281 
L 46.965625 21.558281 
z
" style="fill: #ffffff"/>
   </g>
   <g id="patch_3">
    <path d="M 252.58017 221.142281 
L 306.689261 221.142281 
L 306.689261 21.558281 
L 252.58017 21.558281 
z
" clip-path="url(#p3f5e01e78f)" style="fill: #9ca3af; opacity: 0.25; stroke: #9ca3af; stroke-linejoin: miter"/>
   </g>
   <g id="matplotlib.axis_1">
    <g id="xtick_1">
     <g id="line2d_1">
      <path d="M 63.198352 221.142281 
L 63.198352 21.558281 
" clip-path="url(#p3f5e01e78f)" style="fill: none; stroke: #b0b0b0; stroke-opacity: 0.25; stroke-width: 0.8; stroke-linecap: square"/>
     </g>
     <g id="line2d_2">
      <defs>
       <path id="m7cadcb0e4f" d="M 0 0 
L 0 3.5 
" style="stroke: #000000; stroke-width: 0.8"/>
      </defs>
      <g>
       <use xlink:href="#m7cadcb0e4f" x="63.198352" y="221.142281" style="stroke: #000000; stroke-width: 0.8"/>
      </g>
     </g>
     <g id="text_1">
      <text style="font-size: 10px; font-family: 'DejaVu Sans', 'Bitstream Vera Sans', 'Computer Modern Sans Serif', 'Lucida Grande', 'Verdana', 'Geneva', 'Lucid', 'Arial', 'Helvetica', 'Avant Garde', sans-serif; text-anchor: middle" x="63.198352" y="235.740719" transform="rotate(-0 63.198352 235.740719)">−4</text>
     </g>
    </g>
    <g id="xtick_2">
     <g id="line2d_3">
      <path d="M 117.307443 221.142281 
L 117.307443 21.558281 
" clip-path="url(#p3f5e01e78f)" style="fill: none; stroke: #b0b0b0; stroke-opacity: 0.25; stroke-width: 0.8; stroke-linecap: square"/>
     </g>
     <g id="line2d_4">
      <g>
       <use xlink:href="#m7cadcb0e4f" x="117.307443" y="221.142281" style="stroke: #000000; stroke-width: 0.8"/>
      </g>
     </g>
     <g id="text_2">
      <text style="font-size: 10px; font-family: 'DejaVu Sans', 'Bitstream Vera Sans', 'Computer Modern Sans Serif', 'Lucida Grande', 'Verdana', 'Geneva', 'Lucid', 'Arial', 'Helvetica', 'Avant Garde', sans-serif; text-anchor: middle" x="117.307443" y="235.740719" transform="rotate(-0 117.307443 235.740719)">−2</text>
     </g>
    </g>
    <g id="xtick_3">
     <g id="line2d_5">
      <path d="M 171.416534 221.142281 
L 171.416534 21.558281 
" clip-path="url(#p3f5e01e78f)" style="fill: none; stroke: #b0b0b0; stroke-opacity: 0.25; stroke-width: 0.8; stroke-linecap: square"/>
     </g>
     <g id="line2d_6">
      <g>
       <use xlink:href="#m7cadcb0e4f" x="171.416534" y="221.142281" style="stroke: #000000; stroke-width: 0.8"/>
      </g>
     </g>
     <g id="text_3">
      <text style="font-size: 10px; font-family: 'DejaVu Sans', 'Bitstream Vera Sans', 'Computer Modern Sans Serif', 'Lucida Grande', 'Verdana', 'Geneva', 'Lucid', 'Arial', 'Helvetica', 'Avant Garde', sans-serif; text-anchor: middle" x="171.416534" y="235.740719" transform="rotate(-0 171.416534 235.740719)">0</text>
     </g>
    </g>
    <g id="xtick_4">
     <g id="line2d_7">
      <path d="M 225.525625 221.142281 
L 225.525625 21.558281 
" clip-path="url(#p3f5e01e78f)" style="fill: none; stroke: #b0b0b0; stroke-opacity: 0.25; stroke-width: 0.8; stroke-linecap: square"/>
     </g>
     <g id="line2d_8">
      <g>
       <use xlink:href="#m7cadcb0e4f" x="225.525625" y="221.142281" style="stroke: #000000; stroke-width: 0.8"/>
      </g>
     </g>
     <g id="text_4">
      <text style="font-size: 10px; font-family: 'DejaVu Sans', 'Bitstream Vera Sans', 'Computer Modern Sans Serif', 'Lucida Grande', 'Verdana', 'Geneva', 'Lucid', 'Arial', 'Helvetica', 'Avant Garde', sans-serif; text-anchor: middle" x="225.525625" y="235.740719" transform="rotate(-0 225.525625 235.740719)">2</text>
     </g>
    </g>
    <g id="xtick_5">
     <g id="line2d_9">
      <path d="M 279.634716 221.142281 
L 279.634716 21.558281 
" clip-path="url(#p3f5e01e78f)" style="fill: none; stroke: #b0b0b0; stroke-opacity: 0.25; stroke-width: 0.8; stroke-linecap: square"/>
     </g>
     <g id="line2d_10">
      <g>
       <use xlink:href="#m7cadcb0e4f" x="279.634716" y="221.142281" style="stroke: #000000; stroke-width: 0.8"/>
      </g>
     </g>
     <g id="text_5">
      <text style="font-size: 10px; font-family: 'DejaVu Sans', 'Bitstream Vera Sans', 'Computer Modern Sans Serif', 'Lucida Grande', 'Verdana', 'Geneva', 'Lucid', 'Arial', 'Helvetica', 'Avant Garde', sans-serif; text-anchor: middle" x="279.634716" y="235.740719" transform="rotate(-0 279.634716 235.740719)">4</text>
     </g>
    </g>
    <g id="xtick_6">
     <g id="line2d_11">
      <path d="M 333.743807 221.142281 
L 333.743807 21.558281 
" clip-path="url(#p3f5e01e78f)" style="fill: none; stroke: #b0b0b0; stroke-opacity: 0.25; stroke-width: 0.8; stroke-linecap: square"/>
     </g>
     <g id="line2d_12">
      <g>
       <use xlink:href="#m7cadcb0e4f" x="333.743807" y="221.142281" style="stroke: #000000; stroke-width: 0.8"/>
      </g>
     </g>
     <g id="text_6">
      <text style="font-size: 10px; font-family: 'DejaVu Sans', 'Bitstream Vera Sans', 'Computer Modern Sans Serif', 'Lucida Grande', 'Verdana', 'Geneva', 'Lucid', 'Arial', 'Helvetica', 'Avant Garde', sans-serif; text-anchor: middle" x="333.743807" y="235.740719" transform="rotate(-0 333.743807 235.740719)">6</text>
     </g>
    </g>
    <g id="xtick_7">
     <g id="line2d_13">
      <path d="M 387.852898 221.142281 
L 387.852898 21.558281 
" clip-path="url(#p3f5e01e78f)" style="fill: none; stroke: #b0b0b0; stroke-opacity: 0.25; stroke-width: 0.8; stroke-linecap: square"/>
     </g>
     <g id="line2d_14">
      <g>
       <use xlink:href="#m7cadcb0e4f" x="387.852898" y="221.142281" style="stroke: #000000; stroke-width: 0.8"/>
      </g>
     </g>
     <g id="text_7">
      <text style="font-size: 10px; font-family: 'DejaVu Sans', 'Bitstream Vera Sans', 'Computer Modern Sans Serif', 'Lucida Grande', 'Verdana', 'Geneva', 'Lucid', 'Arial', 'Helvetica', 'Avant Garde', sans-serif; text-anchor: middle" x="387.852898" y="235.740719" transform="rotate(-0 387.852898 235.740719)">8</text>
     </g>
    </g>
    <g id="text_8">
     <text style="font-size: 10px; font-family: 'DejaVu Sans', 'Bitstream Vera Sans', 'Computer Modern Sans Serif', 'Lucida Grande', 'Verdana', 'Geneva', 'Lucid', 'Arial', 'Helvetica', 'Avant Garde', sans-serif; text-anchor: middle" x="225.525625" y="249.496969" transform="rotate(-0 225.525625 249.496969)">model ability θ</text>
    </g>
   </g>
   <g id="matplotlib.axis_2">
    <g id="ytick_1">
     <g id="line2d_15">
      <path d="M 46.965625 212.144623 
L 404.085625 212.144623 
" clip-path="url(#p3f5e01e78f)" style="fill: none; stroke: #b0b0b0; stroke-opacity: 0.25; stroke-width: 0.8; stroke-linecap: square"/>
     </g>
     <g id="line2d_16">
      <defs>
       <path id="m868c41b290" d="M 0 0 
L -3.5 0 
" style="stroke: #000000; stroke-width: 0.8"/>
      </defs>
      <g>
       <use xlink:href="#m868c41b290" x="46.965625" y="212.144623" style="stroke: #000000; stroke-width: 0.8"/>
      </g>
     </g>
     <g id="text_9">
      <text style="font-size: 10px; font-family: 'DejaVu Sans', 'Bitstream Vera Sans', 'Computer Modern Sans Serif', 'Lucida Grande', 'Verdana', 'Geneva', 'Lucid', 'Arial', 'Helvetica', 'Avant Garde', sans-serif; text-anchor: end" x="39.965625" y="215.943841" transform="rotate(-0 39.965625 215.943841)">0</text>
     </g>
    </g>
    <g id="ytick_2">
     <g id="line2d_17">
      <path d="M 46.965625 175.839741 
L 404.085625 175.839741 
" clip-path="url(#p3f5e01e78f)" style="fill: none; stroke: #b0b0b0; stroke-opacity: 0.25; stroke-width: 0.8; stroke-linecap: square"/>
     </g>
     <g id="line2d_18">
      <g>
       <use xlink:href="#m868c41b290" x="46.965625" y="175.839741" style="stroke: #000000; stroke-width: 0.8"/>
      </g>
     </g>
     <g id="text_10">
      <text style="font-size: 10px; font-family: 'DejaVu Sans', 'Bitstream Vera Sans', 'Computer Modern Sans Serif', 'Lucida Grande', 'Verdana', 'Geneva', 'Lucid', 'Arial', 'Helvetica', 'Avant Garde', sans-serif; text-anchor: end" x="39.965625" y="179.63896" transform="rotate(-0 39.965625 179.63896)">20</text>
     </g>
    </g>
    <g id="ytick_3">
     <g id="line2d_19">
      <path d="M 46.965625 139.53486 
L 404.085625 139.53486 
" clip-path="url(#p3f5e01e78f)" style="fill: none; stroke: #b0b0b0; stroke-opacity: 0.25; stroke-width: 0.8; stroke-linecap: square"/>
     </g>
     <g id="line2d_20">
      <g>
       <use xlink:href="#m868c41b290" x="46.965625" y="139.53486" style="stroke: #000000; stroke-width: 0.8"/>
      </g>
     </g>
     <g id="text_11">
      <text style="font-size: 10px; font-family: 'DejaVu Sans', 'Bitstream Vera Sans', 'Computer Modern Sans Serif', 'Lucida Grande', 'Verdana', 'Geneva', 'Lucid', 'Arial', 'Helvetica', 'Avant Garde', sans-serif; text-anchor: end" x="39.965625" y="143.334078" transform="rotate(-0 39.965625 143.334078)">40</text>
     </g>
    </g>
    <g id="ytick_4">
     <g id="line2d_21">
      <path d="M 46.965625 103.229978 
L 404.085625 103.229978 
" clip-path="url(#p3f5e01e78f)" style="fill: none; stroke: #b0b0b0; stroke-opacity: 0.25; stroke-width: 0.8; stroke-linecap: square"/>
     </g>
     <g id="line2d_22">
      <g>
       <use xlink:href="#m868c41b290" x="46.965625" y="103.229978" style="stroke: #000000; stroke-width: 0.8"/>
      </g>
     </g>
     <g id="text_12">
      <text style="font-size: 10px; font-family: 'DejaVu Sans', 'Bitstream Vera Sans', 'Computer Modern Sans Serif', 'Lucida Grande', 'Verdana', 'Geneva', 'Lucid', 'Arial', 'Helvetica', 'Avant Garde', sans-serif; text-anchor: end" x="39.965625" y="107.029197" transform="rotate(-0 39.965625 107.029197)">60</text>
     </g>
    </g>
    <g id="ytick_5">
     <g id="line2d_23">
      <path d="M 46.965625 66.925097 
L 404.085625 66.925097 
" clip-path="url(#p3f5e01e78f)" style="fill: none; stroke: #b0b0b0; stroke-opacity: 0.25; stroke-width: 0.8; stroke-linecap: square"/>
     </g>
     <g id="line2d_24">
      <g>
       <use xlink:href="#m868c41b290" x="46.965625" y="66.925097" style="stroke: #000000; stroke-width: 0.8"/>
      </g>
     </g>
     <g id="text_13">
      <text style="font-size: 10px; font-family: 'DejaVu Sans', 'Bitstream Vera Sans', 'Computer Modern Sans Serif', 'Lucida Grande', 'Verdana', 'Geneva', 'Lucid', 'Arial', 'Helvetica', 'Avant Garde', sans-serif; text-anchor: end" x="39.965625" y="70.724316" transform="rotate(-0 39.965625 70.724316)">80</text>
     </g>
    </g>
    <g id="ytick_6">
     <g id="line2d_25">
      <path d="M 46.965625 30.620215 
L 404.085625 30.620215 
" clip-path="url(#p3f5e01e78f)" style="fill: none; stroke: #b0b0b0; stroke-opacity: 0.25; stroke-width: 0.8; stroke-linecap: square"/>
     </g>
     <g id="line2d_26">
      <g>
       <use xlink:href="#m868c41b290" x="46.965625" y="30.620215" style="stroke: #000000; stroke-width: 0.8"/>
      </g>
     </g>
     <g id="text_14">
      <text style="font-size: 10px; font-family: 'DejaVu Sans', 'Bitstream Vera Sans', 'Computer Modern Sans Serif', 'Lucida Grande', 'Verdana', 'Geneva', 'Lucid', 'Arial', 'Helvetica', 'Avant Garde', sans-serif; text-anchor: end" x="39.965625" y="34.419434" transform="rotate(-0 39.965625 34.419434)">100</text>
     </g>
    </g>
    <g id="text_15">
     <text style="font-size: 10px; font-family: 'DejaVu Sans', 'Bitstream Vera Sans', 'Computer Modern Sans Serif', 'Lucida Grande', 'Verdana', 'Geneva', 'Lucid', 'Arial', 'Helvetica', 'Avant Garde', sans-serif; text-anchor: middle" x="14.798438" y="121.350281" transform="rotate(-90 14.798438 121.350281)">expected score (%)</text>
    </g>
   </g>
   <g id="line2d_27">
    <path d="M 63.198352 187.537227 
L 66.461212 184.985879 
L 69.724072 182.231882 
L 72.986932 179.270782 
L 76.249791 176.100105 
L 81.144081 170.951337 
L 86.038371 165.341078 
L 90.93266 159.293081 
L 95.82695 152.845417 
L 100.721239 146.050138 
L 107.246959 136.562683 
L 117.035538 121.796201 
L 128.455547 104.593476 
L 134.981267 95.177733 
L 139.875556 88.454523 
L 144.769846 82.091655 
L 149.664136 76.138148 
L 154.558425 70.628888 
L 159.452715 65.584492 
L 162.715575 62.483815 
L 165.978435 59.592127 
L 169.241294 56.906265 
L 172.504154 54.421174 
L 175.767014 52.130204 
L 179.029874 50.025411 
L 183.924163 47.197548 
L 188.818453 44.735373 
L 193.712742 42.604187 
L 198.607032 40.769074 
L 203.501322 39.196102 
L 208.395611 37.853179 
L 213.289901 36.710599 
L 219.81562 35.452527 
L 226.34134 34.446639 
L 232.867059 33.645251 
L 241.024209 32.87123 
L 250.812788 32.19601 
L 262.232797 31.657674 
L 276.915666 31.225151 
L 294.861395 30.932539 
L 322.595703 30.732433 
L 373.170029 30.637535 
L 387.852898 30.630281 
L 387.852898 30.630281 
" clip-path="url(#p3f5e01e78f)" style="fill: none; stroke: #059669; stroke-width: 1.5; stroke-linecap: square"/>
   </g>
   <g id="line2d_28">
    <path d="M 63.198352 210.667363 
L 72.986932 210.033686 
L 81.144081 209.306789 
L 89.30123 208.33683 
L 95.82695 207.335659 
L 102.352669 206.083384 
L 107.246959 204.945972 
L 112.141249 203.609002 
L 117.035538 202.042844 
L 121.929828 200.215464 
L 126.824117 198.092971 
L 131.718407 195.640464 
L 136.612697 192.823215 
L 139.875556 190.725992 
L 143.138416 188.442946 
L 146.401276 185.966085 
L 149.664136 183.288702 
L 152.926995 180.405668 
L 156.189855 177.313734 
L 159.452715 174.011809 
L 164.347005 168.668773 
L 169.241294 162.872417 
L 174.135584 156.652446 
L 179.029874 150.052846 
L 185.555593 140.764128 
L 193.712742 128.609825 
L 211.658471 101.604365 
L 218.184191 92.336309 
L 223.07848 85.75641 
L 227.97277 79.558949 
L 232.867059 73.787131 
L 237.761349 68.469863 
L 242.655639 63.621974 
L 245.918498 60.652176 
L 249.181358 57.889626 
L 252.444218 55.329946 
L 255.707078 52.967048 
L 258.969937 50.79344 
L 263.864227 47.8689 
L 268.758517 45.318517 
L 273.652806 43.107872 
L 278.547096 41.201977 
L 283.441386 39.566562 
L 288.335675 38.169011 
L 293.229965 36.978987 
L 299.755684 35.667629 
L 306.281404 34.618341 
L 312.807123 33.781865 
L 320.964273 32.973519 
L 330.752852 32.268003 
L 342.172861 31.705276 
L 355.2243 31.292135 
L 373.170029 30.967208 
L 387.852898 30.8221 
L 387.852898 30.8221 
" clip-path="url(#p3f5e01e78f)" style="fill: none; stroke: #2563eb; stroke-width: 1.5; stroke-linecap: square"/>
   </g>
   <g id="line2d_29">
    <path d="M 63.198352 212.070281 
L 99.08981 211.864918 
L 120.298398 211.533605 
L 134.981267 211.096768 
L 146.401276 210.553103 
L 156.189855 209.871262 
L 164.347005 209.089736 
L 170.872724 208.280673 
L 177.398444 207.265287 
L 183.924163 205.995546 
L 188.818453 204.842571 
L 193.712742 203.48767 
L 198.607032 201.900997 
L 203.501322 200.050339 
L 208.395611 197.901684 
L 213.289901 195.420095 
L 216.552761 193.563573 
L 219.81562 191.533764 
L 223.07848 189.321396 
L 226.34134 186.918078 
L 229.6042 184.316583 
L 232.867059 181.511156 
L 236.129919 178.497809 
L 239.392779 175.274611 
L 244.287069 170.047876 
L 249.181358 164.362626 
L 254.075648 158.244988 
L 258.969937 151.735408 
L 263.864227 144.888177 
L 270.389947 135.35027 
L 280.178526 120.554871 
L 289.967105 105.799113 
L 296.492825 96.329115 
L 301.387114 89.551558 
L 306.281404 83.124857 
L 311.175694 77.100312 
L 316.069983 71.515199 
L 320.964273 66.392484 
L 324.227133 63.239313 
L 327.489992 60.295595 
L 330.752852 57.558682 
L 334.015712 55.023964 
L 337.278572 52.685162 
L 340.541431 50.53463 
L 345.435721 47.642543 
L 350.330011 45.121803 
L 355.2243 42.937888 
L 360.11859 41.055825 
L 365.012879 39.441449 
L 369.907169 38.062317 
L 374.801459 36.888297 
L 381.327178 35.594925 
L 387.852898 34.560293 
L 387.852898 34.560293 
" clip-path="url(#p3f5e01e78f)" style="fill: none; stroke: #dc2626; stroke-width: 1.5; stroke-linecap: square"/>
   </g>
   <g id="patch_4">
    <path d="M 46.965625 221.142281 
L 46.965625 21.558281 
" style="fill: none; stroke: #000000; stroke-width: 0.8; stroke-linejoin: miter; stroke-linecap: square"/>
   </g>
   <g id="patch_5">
    <path d="M 46.965625 221.142281 
L 404.085625 221.142281 
" style="fill: none; stroke: #000000; stroke-width: 0.8; stroke-linejoin: miter; stroke-linecap: square"/>
   </g>
   <g id="text_16">
    <text style="font-size: 8px; font-family: 'DejaVu Sans', 'Bitstream Vera Sans', 'Computer Modern Sans Serif', 'Lucida Grande', 'Verdana', 'Geneva', 'Lucid', 'Arial', 'Helvetica', 'Avant Garde', sans-serif; fill: #4b5563" transform="translate(256.537216 197.74064)">two models</text>
    <text style="font-size: 8px; font-family: 'DejaVu Sans', 'Bitstream Vera Sans', 'Computer Modern Sans Serif', 'Lucida Grande', 'Verdana', 'Geneva', 'Lucid', 'Arial', 'Helvetica', 'Avant Garde', sans-serif; fill: #4b5563" transform="translate(247.792841 206.69889)">θ = 3 and θ = 5</text>
   </g>
   <g id="text_17">
    <text style="font-weight: 700; font-size: 11px; font-family: 'DejaVu Sans', 'Bitstream Vera Sans', 'Computer Modern Sans Serif', 'Lucida Grande', 'Verdana', 'Geneva', 'Lucid', 'Arial', 'Helvetica', 'Avant Garde', sans-serif; text-anchor: middle" x="225.525625" y="15.558281" transform="rotate(-0 225.525625 15.558281)">A benchmark only separates models on its steep part</text>
   </g>
   <g id="legend_1">
    <g id="line2d_30">
     <path d="M 54.165625 32.037031 
L 62.165625 32.037031 
L 70.165625 32.037031 
" style="fill: none; stroke: #059669; stroke-width: 1.5; stroke-linecap: square"/>
    </g>
    <g id="text_18">
     <text style="font-size: 8px; font-family: 'DejaVu Sans', 'Bitstream Vera Sans', 'Computer Modern Sans Serif', 'Lucida Grande', 'Verdana', 'Geneva', 'Lucid', 'Arial', 'Helvetica', 'Avant Garde', sans-serif; text-anchor: start" x="76.565625" y="34.837031" transform="rotate(-0 76.565625 34.837031)">easy (difficulty near -2)</text>
    </g>
    <g id="line2d_31">
     <path d="M 54.165625 43.779531 
L 62.165625 43.779531 
L 70.165625 43.779531 
" style="fill: none; stroke: #2563eb; stroke-width: 1.5; stroke-linecap: square"/>
    </g>
    <g id="text_19">
     <text style="font-size: 8px; font-family: 'DejaVu Sans', 'Bitstream Vera Sans', 'Computer Modern Sans Serif', 'Lucida Grande', 'Verdana', 'Geneva', 'Lucid', 'Arial', 'Helvetica', 'Avant Garde', sans-serif; text-anchor: start" x="76.565625" y="46.579531" transform="rotate(-0 76.565625 46.579531)">medium (near 1)</text>
    </g>
    <g id="line2d_32">
     <path d="M 54.165625 55.522031 
L 62.165625 55.522031 
L 70.165625 55.522031 
" style="fill: none; stroke: #dc2626; stroke-width: 1.5; stroke-linecap: square"/>
    </g>
    <g id="text_20">
     <text style="font-size: 8px; font-family: 'DejaVu Sans', 'Bitstream Vera Sans', 'Computer Modern Sans Serif', 'Lucida Grande', 'Verdana', 'Geneva', 'Lucid', 'Arial', 'Helvetica', 'Avant Garde', sans-serif; text-anchor: start" x="76.565625" y="58.322031" transform="rotate(-0 76.565625 58.322031)">hard (near 4)</text>
    </g>
   </g>
  </g>
 </g>
 <defs>
  <clipPath id="p3f5e01e78f">
   <rect x="46.965625" y="21.558281" width="357.12" height="199.584"/>
  </clipPath>
 </defs>
</svg>
